<mxfile host="app.diagrams.net" modified="2022-07-30T06:39:25.866Z" agent="5.0 (Windows NT 10.0; Win64; x64) AppleWebKit/537.36 (KHTML, like Gecko) Chrome/103.0.5060.134 Safari/537.36" etag="ceeN4gMpPj2WzoDCsdDC" version="20.2.0" type="github">
  <diagram id="KWpwURfB7rHuXTJCAP7D" name="第 1 页">
    <mxGraphModel dx="2692" dy="634" grid="1" gridSize="10" guides="1" tooltips="1" connect="1" arrows="1" fold="1" page="1" pageScale="1" pageWidth="827" pageHeight="1169" math="0" shadow="0">
      <root>
        <mxCell id="0" />
        <mxCell id="1" parent="0" />
        <mxCell id="1AF5RXiKY2fiIgN_QnTK-1" value="0" style="rounded=0;whiteSpace=wrap;html=1;" vertex="1" parent="1">
          <mxGeometry x="-1520" y="250" width="80" height="30" as="geometry" />
        </mxCell>
        <mxCell id="1AF5RXiKY2fiIgN_QnTK-2" value="&lt;font color=&quot;#ffffff&quot;&gt;255&lt;/font&gt;" style="rounded=0;whiteSpace=wrap;html=1;fillColor=#FF0829;" vertex="1" parent="1">
          <mxGeometry x="-1440" y="250" width="80" height="30" as="geometry" />
        </mxCell>
        <mxCell id="1AF5RXiKY2fiIgN_QnTK-3" value="&lt;font color=&quot;#ffffff&quot;&gt;255&lt;/font&gt;" style="rounded=0;whiteSpace=wrap;html=1;fillColor=#08FF08;" vertex="1" parent="1">
          <mxGeometry x="-1360" y="250" width="80" height="30" as="geometry" />
        </mxCell>
        <mxCell id="1AF5RXiKY2fiIgN_QnTK-5" value="&lt;font color=&quot;#ffffff&quot;&gt;255&lt;/font&gt;" style="rounded=0;whiteSpace=wrap;html=1;fillColor=#084AFF;" vertex="1" parent="1">
          <mxGeometry x="-1280" y="250" width="80" height="30" as="geometry" />
        </mxCell>
        <mxCell id="1AF5RXiKY2fiIgN_QnTK-6" value="" style="rounded=0;whiteSpace=wrap;html=1;fillColor=#595959;" vertex="1" parent="1">
          <mxGeometry x="-1200" y="250" width="120" height="30" as="geometry" />
        </mxCell>
        <mxCell id="1AF5RXiKY2fiIgN_QnTK-8" value="#FFFFFF" style="rounded=0;whiteSpace=wrap;html=1;fillColor=#ffe6cc;strokeColor=#d79b00;" vertex="1" parent="1">
          <mxGeometry x="-1080" y="250" width="110" height="30" as="geometry" />
        </mxCell>
        <mxCell id="1AF5RXiKY2fiIgN_QnTK-10" value="1" style="rounded=0;whiteSpace=wrap;html=1;" vertex="1" parent="1">
          <mxGeometry x="-1520" y="300" width="80" height="30" as="geometry" />
        </mxCell>
        <mxCell id="1AF5RXiKY2fiIgN_QnTK-14" value="" style="rounded=0;whiteSpace=wrap;html=1;fillColor=#595959;" vertex="1" parent="1">
          <mxGeometry x="-1440" y="300" width="470" height="30" as="geometry" />
        </mxCell>
        <mxCell id="1AF5RXiKY2fiIgN_QnTK-16" value="2" style="rounded=0;whiteSpace=wrap;html=1;" vertex="1" parent="1">
          <mxGeometry x="-1520" y="350" width="80" height="30" as="geometry" />
        </mxCell>
        <mxCell id="1AF5RXiKY2fiIgN_QnTK-20" value="" style="rounded=0;whiteSpace=wrap;html=1;fillColor=#595959;" vertex="1" parent="1">
          <mxGeometry x="-1200" y="350" width="120" height="30" as="geometry" />
        </mxCell>
        <mxCell id="1AF5RXiKY2fiIgN_QnTK-21" value="#000000" style="rounded=0;whiteSpace=wrap;html=1;fillColor=#ffe6cc;strokeColor=#d79b00;" vertex="1" parent="1">
          <mxGeometry x="-1080" y="350" width="110" height="30" as="geometry" />
        </mxCell>
        <mxCell id="1AF5RXiKY2fiIgN_QnTK-22" value="&lt;font color=&quot;#ffffff&quot;&gt;255&lt;/font&gt;" style="rounded=0;whiteSpace=wrap;html=1;fillColor=#FF0829;" vertex="1" parent="1">
          <mxGeometry x="-1440" y="350" width="80" height="30" as="geometry" />
        </mxCell>
        <mxCell id="1AF5RXiKY2fiIgN_QnTK-23" value="&lt;font color=&quot;#ffffff&quot;&gt;255&lt;/font&gt;" style="rounded=0;whiteSpace=wrap;html=1;fillColor=#08FF08;" vertex="1" parent="1">
          <mxGeometry x="-1360" y="350" width="80" height="30" as="geometry" />
        </mxCell>
        <mxCell id="1AF5RXiKY2fiIgN_QnTK-25" value="&lt;font color=&quot;#ffffff&quot;&gt;255&lt;/font&gt;" style="rounded=0;whiteSpace=wrap;html=1;fillColor=#084AFF;" vertex="1" parent="1">
          <mxGeometry x="-1280" y="350" width="80" height="30" as="geometry" />
        </mxCell>
        <mxCell id="1AF5RXiKY2fiIgN_QnTK-26" value="&lt;font color=&quot;#000000&quot;&gt;标签&lt;br&gt;1字节&lt;br&gt;&lt;/font&gt;" style="text;html=1;strokeColor=none;fillColor=none;align=center;verticalAlign=middle;whiteSpace=wrap;rounded=0;fontColor=#FFFFFF;" vertex="1" parent="1">
          <mxGeometry x="-1510" y="180" width="60" height="30" as="geometry" />
        </mxCell>
        <mxCell id="1AF5RXiKY2fiIgN_QnTK-27" value="&lt;span style=&quot;color: rgb(0, 0, 0);&quot;&gt;u8&lt;br&gt;1字节&lt;br&gt;&lt;/span&gt;" style="text;html=1;strokeColor=none;fillColor=none;align=center;verticalAlign=middle;whiteSpace=wrap;rounded=0;fontColor=#FFFFFF;" vertex="1" parent="1">
          <mxGeometry x="-1430" y="180" width="60" height="30" as="geometry" />
        </mxCell>
        <mxCell id="1AF5RXiKY2fiIgN_QnTK-29" value="&lt;font color=&quot;#000000&quot;&gt;u8&lt;br&gt;1字节&lt;br&gt;&lt;/font&gt;" style="text;html=1;strokeColor=none;fillColor=none;align=center;verticalAlign=middle;whiteSpace=wrap;rounded=0;fontColor=#FFFFFF;" vertex="1" parent="1">
          <mxGeometry x="-1350" y="180" width="60" height="30" as="geometry" />
        </mxCell>
        <mxCell id="1AF5RXiKY2fiIgN_QnTK-31" value="&lt;span style=&quot;color: rgb(0, 0, 0);&quot;&gt;u8&lt;/span&gt;&lt;br style=&quot;color: rgb(0, 0, 0);&quot;&gt;&lt;span style=&quot;color: rgb(0, 0, 0);&quot;&gt;1字节&lt;/span&gt;" style="text;html=1;strokeColor=none;fillColor=none;align=center;verticalAlign=middle;whiteSpace=wrap;rounded=0;fontColor=#FFFFFF;" vertex="1" parent="1">
          <mxGeometry x="-1270" y="180" width="60" height="30" as="geometry" />
        </mxCell>
        <mxCell id="1AF5RXiKY2fiIgN_QnTK-33" value="&lt;font color=&quot;#000000&quot;&gt;留空对齐&lt;br&gt;4字节&lt;br&gt;&lt;/font&gt;" style="text;html=1;strokeColor=none;fillColor=none;align=center;verticalAlign=middle;whiteSpace=wrap;rounded=0;fontColor=#FFFFFF;" vertex="1" parent="1">
          <mxGeometry x="-1170" y="180" width="60" height="30" as="geometry" />
        </mxCell>
        <mxCell id="1AF5RXiKY2fiIgN_QnTK-35" value="&lt;font color=&quot;#000000&quot;&gt;String&lt;/font&gt;" style="text;html=1;strokeColor=none;fillColor=none;align=center;verticalAlign=middle;whiteSpace=wrap;rounded=0;fontColor=#FFFFFF;" vertex="1" parent="1">
          <mxGeometry x="-1055" y="180" width="60" height="30" as="geometry" />
        </mxCell>
      </root>
    </mxGraphModel>
  </diagram>
</mxfile>
